<mxfile host="Electron" modified="2024-05-04T16:17:49.370Z" agent="Mozilla/5.0 (Windows NT 10.0; Win64; x64) AppleWebKit/537.36 (KHTML, like Gecko) draw.io/23.1.5 Chrome/120.0.6099.109 Electron/28.1.0 Safari/537.36" etag="4fQzlJzjSNvhdmAemQPb" version="23.1.5" type="device">
  <diagram name="Page-1" id="tUgd9H5hbczjQWHIgpCr">
    <mxGraphModel dx="2049" dy="1194" grid="1" gridSize="10" guides="1" tooltips="1" connect="1" arrows="1" fold="1" page="1" pageScale="1" pageWidth="850" pageHeight="1100" math="0" shadow="0">
      <root>
        <mxCell id="0" />
        <mxCell id="1" parent="0" />
        <mxCell id="niXC2qNcagluS79J-eN3-1" value="" style="rounded=1;whiteSpace=wrap;html=1;" vertex="1" parent="1">
          <mxGeometry x="40" y="520" width="200" height="400" as="geometry" />
        </mxCell>
        <mxCell id="niXC2qNcagluS79J-eN3-3" value="Animated Logo&lt;br&gt;Loading Page" style="rounded=1;whiteSpace=wrap;html=1;" vertex="1" parent="1">
          <mxGeometry x="40" y="40" width="200" height="400" as="geometry" />
        </mxCell>
        <mxCell id="niXC2qNcagluS79J-eN3-4" value="" style="rounded=1;whiteSpace=wrap;html=1;" vertex="1" parent="1">
          <mxGeometry x="325" y="40" width="200" height="400" as="geometry" />
        </mxCell>
        <mxCell id="niXC2qNcagluS79J-eN3-5" value="" style="rounded=1;whiteSpace=wrap;html=1;" vertex="1" parent="1">
          <mxGeometry x="600" y="40" width="200" height="400" as="geometry" />
        </mxCell>
        <mxCell id="niXC2qNcagluS79J-eN3-7" value="" style="verticalLabelPosition=bottom;verticalAlign=top;html=1;shape=mxgraph.basic.partConcEllipse;startAngle=0.25;endAngle=0.1;arcWidth=0.5;" vertex="1" parent="1">
          <mxGeometry x="130" y="260" width="20" height="20" as="geometry" />
        </mxCell>
        <mxCell id="niXC2qNcagluS79J-eN3-11" value="Login To Continue" style="text;html=1;align=center;verticalAlign=middle;whiteSpace=wrap;rounded=0;" vertex="1" parent="1">
          <mxGeometry x="320" y="90" width="130" height="30" as="geometry" />
        </mxCell>
        <mxCell id="niXC2qNcagluS79J-eN3-12" value="Username" style="rounded=1;whiteSpace=wrap;html=1;" vertex="1" parent="1">
          <mxGeometry x="330" y="180" width="190" height="30" as="geometry" />
        </mxCell>
        <mxCell id="niXC2qNcagluS79J-eN3-13" value="Password" style="rounded=1;whiteSpace=wrap;html=1;" vertex="1" parent="1">
          <mxGeometry x="330" y="240" width="190" height="30" as="geometry" />
        </mxCell>
        <mxCell id="niXC2qNcagluS79J-eN3-19" value="" style="line;strokeWidth=2;html=1;" vertex="1" parent="1">
          <mxGeometry x="600" y="77.5" width="200" height="10" as="geometry" />
        </mxCell>
        <mxCell id="niXC2qNcagluS79J-eN3-20" value="&lt;font style=&quot;font-size: 12px;&quot;&gt;Dashboard&lt;/font&gt;" style="text;strokeColor=none;fillColor=none;html=1;fontSize=24;fontStyle=1;verticalAlign=middle;align=center;" vertex="1" parent="1">
          <mxGeometry x="600" y="47.5" width="90" height="30" as="geometry" />
        </mxCell>
        <mxCell id="niXC2qNcagluS79J-eN3-34" value="Register User" style="text;html=1;align=center;verticalAlign=middle;whiteSpace=wrap;rounded=0;" vertex="1" parent="1">
          <mxGeometry x="40" y="535" width="200" height="30" as="geometry" />
        </mxCell>
        <mxCell id="niXC2qNcagluS79J-eN3-35" value="User Name" style="rounded=1;whiteSpace=wrap;html=1;" vertex="1" parent="1">
          <mxGeometry x="50" y="590" width="180" height="30" as="geometry" />
        </mxCell>
        <mxCell id="niXC2qNcagluS79J-eN3-36" value="Mobile No." style="rounded=1;whiteSpace=wrap;html=1;" vertex="1" parent="1">
          <mxGeometry x="50" y="640" width="180" height="30" as="geometry" />
        </mxCell>
        <mxCell id="niXC2qNcagluS79J-eN3-37" value="E-mail ID" style="rounded=1;whiteSpace=wrap;html=1;" vertex="1" parent="1">
          <mxGeometry x="50" y="690" width="180" height="30" as="geometry" />
        </mxCell>
        <mxCell id="niXC2qNcagluS79J-eN3-38" value="Password" style="rounded=1;whiteSpace=wrap;html=1;" vertex="1" parent="1">
          <mxGeometry x="50" y="740" width="180" height="30" as="geometry" />
        </mxCell>
        <mxCell id="niXC2qNcagluS79J-eN3-39" value="Confirm Password" style="rounded=1;whiteSpace=wrap;html=1;" vertex="1" parent="1">
          <mxGeometry x="50" y="790" width="180" height="30" as="geometry" />
        </mxCell>
        <mxCell id="niXC2qNcagluS79J-eN3-45" value="" style="shape=curlyBracket;whiteSpace=wrap;html=1;rounded=1;flipH=1;labelPosition=right;verticalLabelPosition=middle;align=left;verticalAlign=middle;" vertex="1" parent="1">
          <mxGeometry x="810" y="120" width="40" height="250" as="geometry" />
        </mxCell>
        <mxCell id="niXC2qNcagluS79J-eN3-48" value="Cards Showing Information Of Available Components In Store" style="text;html=1;align=center;verticalAlign=middle;whiteSpace=wrap;rounded=0;" vertex="1" parent="1">
          <mxGeometry x="840" y="230" width="190" height="30" as="geometry" />
        </mxCell>
        <mxCell id="niXC2qNcagluS79J-eN3-55" value="" style="verticalLabelPosition=bottom;verticalAlign=top;html=1;shadow=0;dashed=0;strokeWidth=1;shape=mxgraph.android.quickscroll3;dy=0.058;fillColor=#33b5e5;strokeColor=#66D5F5;" vertex="1" parent="1">
          <mxGeometry x="794" y="90" width="6" height="320" as="geometry" />
        </mxCell>
        <mxCell id="niXC2qNcagluS79J-eN3-56" value="&lt;font style=&quot;font-size: 17px;&quot;&gt;Component1&lt;/font&gt;" style="dashed=0;shape=rect;shadow=1;fontSize=24;fontStyle=0;verticalAlign=top;spacingBottom=0;spacingLeft=16;spacingTop=15;align=left;whiteSpace=wrap;html=1;" vertex="1" parent="1">
          <mxGeometry x="610" y="90" width="180" height="92.5" as="geometry" />
        </mxCell>
        <mxCell id="niXC2qNcagluS79J-eN3-57" value="&lt;font style=&quot;font-size: 9px;&quot;&gt;Information Like Quantity and Price&lt;/font&gt;" style="text;fontColor=#999999;fontSize=13;fontStyle=0;verticalAlign=middle;spacingBottom=0;spacingLeft=16;whiteSpace=wrap;html=1;" vertex="1" parent="niXC2qNcagluS79J-eN3-56">
          <mxGeometry width="110" height="20" relative="1" as="geometry">
            <mxPoint y="59" as="offset" />
          </mxGeometry>
        </mxCell>
        <mxCell id="niXC2qNcagluS79J-eN3-58" value="Pic" style="shape=rect;fillColor=#bbbbbb;strokeColor=none;" vertex="1" parent="niXC2qNcagluS79J-eN3-56">
          <mxGeometry x="1" width="49" height="50" relative="1" as="geometry">
            <mxPoint x="-60" y="10" as="offset" />
          </mxGeometry>
        </mxCell>
        <mxCell id="niXC2qNcagluS79J-eN3-59" value="-" style="shape=rect;fontSize=13;strokeColor=none;fillColor=#ffffff;fontColor=#444444;fontStyle=1;whiteSpace=wrap;html=1;" vertex="1" parent="niXC2qNcagluS79J-eN3-56">
          <mxGeometry y="1" width="40" height="19" relative="1" as="geometry">
            <mxPoint x="100" y="-22" as="offset" />
          </mxGeometry>
        </mxCell>
        <mxCell id="niXC2qNcagluS79J-eN3-60" value="+" style="shape=rect;fontSize=13;strokeColor=none;fillColor=#ffffff;fontColor=#444444;fontStyle=1;whiteSpace=wrap;html=1;" vertex="1" parent="niXC2qNcagluS79J-eN3-56">
          <mxGeometry y="1" width="40" height="19" relative="1" as="geometry">
            <mxPoint x="140" y="-22" as="offset" />
          </mxGeometry>
        </mxCell>
        <mxCell id="niXC2qNcagluS79J-eN3-62" value="&lt;font style=&quot;font-size: 17px;&quot;&gt;Component2&lt;/font&gt;" style="dashed=0;shape=rect;shadow=1;fontSize=24;fontStyle=0;verticalAlign=top;spacingBottom=0;spacingLeft=16;spacingTop=15;align=left;whiteSpace=wrap;html=1;" vertex="1" parent="1">
          <mxGeometry x="610" y="198.75" width="180" height="92.5" as="geometry" />
        </mxCell>
        <mxCell id="niXC2qNcagluS79J-eN3-63" value="&lt;font style=&quot;font-size: 9px;&quot;&gt;Information Like Quantity and Price&lt;/font&gt;" style="text;fontColor=#999999;fontSize=13;fontStyle=0;verticalAlign=middle;spacingBottom=0;spacingLeft=16;whiteSpace=wrap;html=1;" vertex="1" parent="niXC2qNcagluS79J-eN3-62">
          <mxGeometry width="110" height="20" relative="1" as="geometry">
            <mxPoint y="59" as="offset" />
          </mxGeometry>
        </mxCell>
        <mxCell id="niXC2qNcagluS79J-eN3-64" value="Pic" style="shape=rect;fillColor=#bbbbbb;strokeColor=none;" vertex="1" parent="niXC2qNcagluS79J-eN3-62">
          <mxGeometry x="1" width="49" height="50" relative="1" as="geometry">
            <mxPoint x="-60" y="10" as="offset" />
          </mxGeometry>
        </mxCell>
        <mxCell id="niXC2qNcagluS79J-eN3-65" value="-" style="shape=rect;fontSize=13;strokeColor=none;fillColor=#ffffff;fontColor=#444444;fontStyle=1;whiteSpace=wrap;html=1;" vertex="1" parent="niXC2qNcagluS79J-eN3-62">
          <mxGeometry y="1" width="40" height="19" relative="1" as="geometry">
            <mxPoint x="100" y="-22" as="offset" />
          </mxGeometry>
        </mxCell>
        <mxCell id="niXC2qNcagluS79J-eN3-66" value="+" style="shape=rect;fontSize=13;strokeColor=none;fillColor=#ffffff;fontColor=#444444;fontStyle=1;whiteSpace=wrap;html=1;" vertex="1" parent="niXC2qNcagluS79J-eN3-62">
          <mxGeometry y="1" width="40" height="19" relative="1" as="geometry">
            <mxPoint x="140" y="-22" as="offset" />
          </mxGeometry>
        </mxCell>
        <mxCell id="niXC2qNcagluS79J-eN3-67" value="&lt;font style=&quot;font-size: 17px;&quot;&gt;Component3&lt;/font&gt;" style="dashed=0;shape=rect;shadow=1;fontSize=24;fontStyle=0;verticalAlign=top;spacingBottom=0;spacingLeft=16;spacingTop=15;align=left;whiteSpace=wrap;html=1;" vertex="1" parent="1">
          <mxGeometry x="610" y="310" width="180" height="92.5" as="geometry" />
        </mxCell>
        <mxCell id="niXC2qNcagluS79J-eN3-68" value="&lt;font style=&quot;font-size: 9px;&quot;&gt;Information Like Quantity and Price&lt;/font&gt;" style="text;fontColor=#999999;fontSize=13;fontStyle=0;verticalAlign=middle;spacingBottom=0;spacingLeft=16;whiteSpace=wrap;html=1;" vertex="1" parent="niXC2qNcagluS79J-eN3-67">
          <mxGeometry width="110" height="20" relative="1" as="geometry">
            <mxPoint y="59" as="offset" />
          </mxGeometry>
        </mxCell>
        <mxCell id="niXC2qNcagluS79J-eN3-69" value="Pic" style="shape=rect;fillColor=#bbbbbb;strokeColor=none;" vertex="1" parent="niXC2qNcagluS79J-eN3-67">
          <mxGeometry x="1" width="49" height="50" relative="1" as="geometry">
            <mxPoint x="-60" y="10" as="offset" />
          </mxGeometry>
        </mxCell>
        <mxCell id="niXC2qNcagluS79J-eN3-70" value="-" style="shape=rect;fontSize=13;strokeColor=none;fillColor=#ffffff;fontColor=#444444;fontStyle=1;whiteSpace=wrap;html=1;" vertex="1" parent="niXC2qNcagluS79J-eN3-67">
          <mxGeometry y="1" width="40" height="19" relative="1" as="geometry">
            <mxPoint x="100" y="-22" as="offset" />
          </mxGeometry>
        </mxCell>
        <mxCell id="niXC2qNcagluS79J-eN3-71" value="+" style="shape=rect;fontSize=13;strokeColor=none;fillColor=#ffffff;fontColor=#444444;fontStyle=1;whiteSpace=wrap;html=1;" vertex="1" parent="niXC2qNcagluS79J-eN3-67">
          <mxGeometry y="1" width="40" height="19" relative="1" as="geometry">
            <mxPoint x="140" y="-22" as="offset" />
          </mxGeometry>
        </mxCell>
        <mxCell id="niXC2qNcagluS79J-eN3-72" value="" style="shape=ellipse;dashed=0;strokeColor=#6F0000;shadow=1;fontSize=13;align=center;verticalAlign=top;labelPosition=center;verticalLabelPosition=bottom;html=1;aspect=fixed;fillColor=#BF001A;fontColor=#ffffff;" vertex="1" parent="1">
          <mxGeometry x="750" y="390" width="40" height="40" as="geometry" />
        </mxCell>
        <mxCell id="niXC2qNcagluS79J-eN3-73" value="" style="dashed=0;html=1;shape=mxgraph.gmdl.plus;strokeWidth=2;shadow=0;sketch=0;html=1;labelPosition=center;verticalLabelPosition=bottom;align=center;verticalAlign=top;" vertex="1" parent="niXC2qNcagluS79J-eN3-72">
          <mxGeometry x="12" y="12" width="16" height="16" as="geometry" />
        </mxCell>
        <mxCell id="niXC2qNcagluS79J-eN3-74" value="" style="shape=ellipse;dashed=0;strokeColor=#6F0000;shadow=1;fontSize=13;align=center;verticalAlign=top;labelPosition=center;verticalLabelPosition=bottom;html=1;aspect=fixed;fillColor=#a20025;fontColor=#ffffff;" vertex="1" parent="1">
          <mxGeometry x="470" y="84" width="36" height="36" as="geometry" />
        </mxCell>
        <mxCell id="niXC2qNcagluS79J-eN3-75" value="" style="dashed=0;html=1;shape=mxgraph.gmdl.reply;shadow=0;sketch=0;html=1;labelPosition=center;verticalLabelPosition=bottom;align=center;verticalAlign=top;" vertex="1" parent="niXC2qNcagluS79J-eN3-74">
          <mxGeometry x="11.571428571428571" y="12.214285714285714" width="12.857142857142856" height="11.571428571428571" as="geometry" />
        </mxCell>
        <mxCell id="niXC2qNcagluS79J-eN3-76" value="" style="shape=ellipse;dashed=0;shadow=1;fontSize=13;align=center;verticalAlign=top;labelPosition=center;verticalLabelPosition=bottom;html=1;aspect=fixed;fillColor=#a20025;fontColor=#ffffff;strokeColor=#6F0000;" vertex="1" parent="1">
          <mxGeometry x="470" y="130" width="36" height="36" as="geometry" />
        </mxCell>
        <mxCell id="niXC2qNcagluS79J-eN3-77" value="" style="dashed=0;html=1;shape=mxgraph.gmdl.chat;shadow=0;sketch=0;html=1;labelPosition=center;verticalLabelPosition=bottom;align=center;verticalAlign=top;" vertex="1" parent="niXC2qNcagluS79J-eN3-76">
          <mxGeometry x="11.571428571428571" y="11.571428571428571" width="12.857142857142856" height="12.857142857142856" as="geometry" />
        </mxCell>
        <mxCell id="niXC2qNcagluS79J-eN3-78" value="" style="shape=ellipse;dashed=0;strokeColor=#6F0000;shadow=1;fontSize=13;align=center;verticalAlign=top;labelPosition=center;verticalLabelPosition=bottom;html=1;aspect=fixed;fillColor=#a20025;fontColor=#ffffff;" vertex="1" parent="1">
          <mxGeometry x="194" y="850" width="36" height="36" as="geometry" />
        </mxCell>
        <mxCell id="niXC2qNcagluS79J-eN3-79" value="" style="dashed=0;html=1;shape=mxgraph.gmdl.reply;shadow=0;sketch=0;html=1;labelPosition=center;verticalLabelPosition=bottom;align=center;verticalAlign=top;" vertex="1" parent="niXC2qNcagluS79J-eN3-78">
          <mxGeometry x="11.571428571428571" y="12.214285714285714" width="12.857142857142856" height="11.571428571428571" as="geometry" />
        </mxCell>
        <mxCell id="niXC2qNcagluS79J-eN3-82" value="" style="verticalLabelPosition=bottom;align=center;dashed=0;html=1;verticalAlign=top;shape=mxgraph.pid.filters.filter;fillColor=#a20025;fontColor=#ffffff;strokeColor=#6F0000;" vertex="1" parent="1">
          <mxGeometry x="730" y="52.5" width="20" height="20" as="geometry" />
        </mxCell>
        <mxCell id="niXC2qNcagluS79J-eN3-83" value="" style="endArrow=none;dashed=1;html=1;dashPattern=1 3;strokeWidth=2;rounded=0;" edge="1" parent="1">
          <mxGeometry width="50" height="50" relative="1" as="geometry">
            <mxPoint x="780" y="62.5" as="sourcePoint" />
            <mxPoint x="780" y="52.5" as="targetPoint" />
            <Array as="points">
              <mxPoint x="780" y="72.5" />
              <mxPoint x="780" y="62.5" />
            </Array>
          </mxGeometry>
        </mxCell>
        <mxCell id="niXC2qNcagluS79J-eN3-84" value="" style="rounded=1;whiteSpace=wrap;html=1;" vertex="1" parent="1">
          <mxGeometry x="320" y="520" width="200" height="400" as="geometry" />
        </mxCell>
        <mxCell id="niXC2qNcagluS79J-eN3-85" value="" style="line;strokeWidth=2;html=1;" vertex="1" parent="1">
          <mxGeometry x="320" y="555" width="200" height="10" as="geometry" />
        </mxCell>
        <mxCell id="niXC2qNcagluS79J-eN3-86" value="&lt;font style=&quot;font-size: 14px;&quot;&gt;Settings&lt;/font&gt;" style="text;strokeColor=none;fillColor=none;html=1;fontSize=24;fontStyle=1;verticalAlign=middle;align=center;" vertex="1" parent="1">
          <mxGeometry x="320" y="520" width="100" height="40" as="geometry" />
        </mxCell>
        <mxCell id="niXC2qNcagluS79J-eN3-87" value="&lt;ul&gt;&lt;li&gt;Theme&lt;/li&gt;&lt;/ul&gt;&lt;div style=&quot;line-height: 60%;&quot;&gt;&lt;br&gt;&lt;/div&gt;&lt;div&gt;&lt;ul&gt;&lt;li&gt;Notifications&lt;/li&gt;&lt;/ul&gt;&lt;/div&gt;" style="text;strokeColor=none;fillColor=none;html=1;whiteSpace=wrap;verticalAlign=middle;overflow=hidden;" vertex="1" parent="1">
          <mxGeometry x="307.5" y="560" width="125" height="105" as="geometry" />
        </mxCell>
        <mxCell id="niXC2qNcagluS79J-eN3-88" value="" style="dashed=0;labelPosition=right;align=left;shape=mxgraph.gmdl.switch;aspect=fixed;switchState=off;strokeColor=none;fillColor=#0E9D57;sketch=0;html=1;" vertex="1" parent="1">
          <mxGeometry x="470" y="580" width="26" height="14.44" as="geometry" />
        </mxCell>
        <mxCell id="niXC2qNcagluS79J-eN3-89" value="" style="dashed=0;labelPosition=right;align=left;shape=mxgraph.gmdl.switch;aspect=fixed;switchState=on;strokeColor=none;fillColor=#0E9D57;sketch=0;html=1;" vertex="1" parent="1">
          <mxGeometry x="470" y="631.11" width="26" height="14.45" as="geometry" />
        </mxCell>
        <mxCell id="niXC2qNcagluS79J-eN3-90" value="" style="rounded=1;whiteSpace=wrap;html=1;" vertex="1" parent="1">
          <mxGeometry x="600" y="520" width="200" height="400" as="geometry" />
        </mxCell>
        <mxCell id="niXC2qNcagluS79J-eN3-91" value="" style="line;strokeWidth=2;html=1;" vertex="1" parent="1">
          <mxGeometry x="600" y="555" width="200" height="10" as="geometry" />
        </mxCell>
        <mxCell id="niXC2qNcagluS79J-eN3-92" value="&lt;font style=&quot;font-size: 14px;&quot;&gt;About Us&lt;/font&gt;" style="text;strokeColor=none;fillColor=none;html=1;fontSize=24;fontStyle=1;verticalAlign=middle;align=center;" vertex="1" parent="1">
          <mxGeometry x="600" y="520" width="100" height="40" as="geometry" />
        </mxCell>
        <mxCell id="niXC2qNcagluS79J-eN3-93" value="&lt;h1 style=&quot;&quot;&gt;&lt;font style=&quot;font-size: 16px;&quot;&gt;Heading&lt;/font&gt;&lt;/h1&gt;&lt;p style=&quot;&quot;&gt;&lt;font style=&quot;font-size: 9px;&quot;&gt;Lorem ipsum dolor sit amet, consectetur adipisicing elit, sed do eiusmod tempor incididunt ut labore et dolore magna aliqua.&lt;/font&gt;&lt;/p&gt;" style="text;html=1;spacing=5;spacingTop=-20;whiteSpace=wrap;overflow=hidden;rounded=0;" vertex="1" parent="1">
          <mxGeometry x="605" y="565" width="155" height="165" as="geometry" />
        </mxCell>
        <mxCell id="niXC2qNcagluS79J-eN3-94" value="&lt;h2 style=&quot;line-height: 110%;&quot;&gt;&lt;font style=&quot;font-size: 9px;&quot; color=&quot;#000000&quot;&gt;Owner Name&lt;/font&gt;&lt;/h2&gt;" style="dashed=0;shape=rect;fillColor=#ffffff;strokeColor=none;verticalLabelPosition=middle;align=left;verticalAlign=middle;fontSize=15;spacingLeft=72;whiteSpace=wrap;html=1;" vertex="1" parent="1">
          <mxGeometry x="610" y="710" width="180" height="40" as="geometry" />
        </mxCell>
        <mxCell id="niXC2qNcagluS79J-eN3-95" value="" style="dashed=0;shape=mxgraph.gmdl.user;strokeColor=none;fillColor=#808080;" vertex="1" parent="niXC2qNcagluS79J-eN3-94">
          <mxGeometry y="0.5" width="30" height="29.5" relative="1" as="geometry">
            <mxPoint x="10" y="-15" as="offset" />
          </mxGeometry>
        </mxCell>
        <mxCell id="niXC2qNcagluS79J-eN3-96" value="" style="dashed=0;shape=mxgraph.gmdl.preferences;strokeColor=none;fillColor=#666666;" vertex="1" parent="niXC2qNcagluS79J-eN3-94">
          <mxGeometry x="1" y="0.5" width="19" height="19.5" relative="1" as="geometry">
            <mxPoint x="-36" y="-9" as="offset" />
          </mxGeometry>
        </mxCell>
        <mxCell id="niXC2qNcagluS79J-eN3-97" value="Firebase Database" style="shape=datastore;whiteSpace=wrap;html=1;" vertex="1" parent="1">
          <mxGeometry x="1250" y="70" width="200" height="150" as="geometry" />
        </mxCell>
        <mxCell id="niXC2qNcagluS79J-eN3-98" value="Users" style="swimlane;fontStyle=0;childLayout=stackLayout;horizontal=1;startSize=26;fillColor=none;horizontalStack=0;resizeParent=1;resizeParentMax=0;resizeLast=0;collapsible=1;marginBottom=0;html=1;" vertex="1" parent="1">
          <mxGeometry x="1110" y="446" width="140" height="104" as="geometry" />
        </mxCell>
        <mxCell id="niXC2qNcagluS79J-eN3-99" value="Item 1" style="text;strokeColor=none;fillColor=none;align=left;verticalAlign=top;spacingLeft=4;spacingRight=4;overflow=hidden;rotatable=0;points=[[0,0.5],[1,0.5]];portConstraint=eastwest;whiteSpace=wrap;html=1;" vertex="1" parent="niXC2qNcagluS79J-eN3-98">
          <mxGeometry y="26" width="140" height="26" as="geometry" />
        </mxCell>
        <mxCell id="niXC2qNcagluS79J-eN3-100" value="Item 2" style="text;strokeColor=none;fillColor=none;align=left;verticalAlign=top;spacingLeft=4;spacingRight=4;overflow=hidden;rotatable=0;points=[[0,0.5],[1,0.5]];portConstraint=eastwest;whiteSpace=wrap;html=1;" vertex="1" parent="niXC2qNcagluS79J-eN3-98">
          <mxGeometry y="52" width="140" height="26" as="geometry" />
        </mxCell>
        <mxCell id="niXC2qNcagluS79J-eN3-101" value="Item 3" style="text;strokeColor=none;fillColor=none;align=left;verticalAlign=top;spacingLeft=4;spacingRight=4;overflow=hidden;rotatable=0;points=[[0,0.5],[1,0.5]];portConstraint=eastwest;whiteSpace=wrap;html=1;" vertex="1" parent="niXC2qNcagluS79J-eN3-98">
          <mxGeometry y="78" width="140" height="26" as="geometry" />
        </mxCell>
        <mxCell id="niXC2qNcagluS79J-eN3-102" value="Components" style="swimlane;fontStyle=0;childLayout=stackLayout;horizontal=1;startSize=26;fillColor=none;horizontalStack=0;resizeParent=1;resizeParentMax=0;resizeLast=0;collapsible=1;marginBottom=0;html=1;" vertex="1" parent="1">
          <mxGeometry x="1450" y="446" width="140" height="104" as="geometry" />
        </mxCell>
        <mxCell id="niXC2qNcagluS79J-eN3-103" value="Item 1" style="text;strokeColor=none;fillColor=none;align=left;verticalAlign=top;spacingLeft=4;spacingRight=4;overflow=hidden;rotatable=0;points=[[0,0.5],[1,0.5]];portConstraint=eastwest;whiteSpace=wrap;html=1;" vertex="1" parent="niXC2qNcagluS79J-eN3-102">
          <mxGeometry y="26" width="140" height="26" as="geometry" />
        </mxCell>
        <mxCell id="niXC2qNcagluS79J-eN3-104" value="Item 2" style="text;strokeColor=none;fillColor=none;align=left;verticalAlign=top;spacingLeft=4;spacingRight=4;overflow=hidden;rotatable=0;points=[[0,0.5],[1,0.5]];portConstraint=eastwest;whiteSpace=wrap;html=1;" vertex="1" parent="niXC2qNcagluS79J-eN3-102">
          <mxGeometry y="52" width="140" height="26" as="geometry" />
        </mxCell>
        <mxCell id="niXC2qNcagluS79J-eN3-105" value="Item 3" style="text;strokeColor=none;fillColor=none;align=left;verticalAlign=top;spacingLeft=4;spacingRight=4;overflow=hidden;rotatable=0;points=[[0,0.5],[1,0.5]];portConstraint=eastwest;whiteSpace=wrap;html=1;" vertex="1" parent="niXC2qNcagluS79J-eN3-102">
          <mxGeometry y="78" width="140" height="26" as="geometry" />
        </mxCell>
        <mxCell id="niXC2qNcagluS79J-eN3-106" value="Images" style="swimlane;fontStyle=0;childLayout=stackLayout;horizontal=1;startSize=26;fillColor=none;horizontalStack=0;resizeParent=1;resizeParentMax=0;resizeLast=0;collapsible=1;marginBottom=0;html=1;" vertex="1" parent="1">
          <mxGeometry x="1280" y="646" width="140" height="104" as="geometry" />
        </mxCell>
        <mxCell id="niXC2qNcagluS79J-eN3-107" value="Item 1" style="text;strokeColor=none;fillColor=none;align=left;verticalAlign=top;spacingLeft=4;spacingRight=4;overflow=hidden;rotatable=0;points=[[0,0.5],[1,0.5]];portConstraint=eastwest;whiteSpace=wrap;html=1;" vertex="1" parent="niXC2qNcagluS79J-eN3-106">
          <mxGeometry y="26" width="140" height="26" as="geometry" />
        </mxCell>
        <mxCell id="niXC2qNcagluS79J-eN3-108" value="Item 2" style="text;strokeColor=none;fillColor=none;align=left;verticalAlign=top;spacingLeft=4;spacingRight=4;overflow=hidden;rotatable=0;points=[[0,0.5],[1,0.5]];portConstraint=eastwest;whiteSpace=wrap;html=1;" vertex="1" parent="niXC2qNcagluS79J-eN3-106">
          <mxGeometry y="52" width="140" height="26" as="geometry" />
        </mxCell>
        <mxCell id="niXC2qNcagluS79J-eN3-109" value="Item 3" style="text;strokeColor=none;fillColor=none;align=left;verticalAlign=top;spacingLeft=4;spacingRight=4;overflow=hidden;rotatable=0;points=[[0,0.5],[1,0.5]];portConstraint=eastwest;whiteSpace=wrap;html=1;" vertex="1" parent="niXC2qNcagluS79J-eN3-106">
          <mxGeometry y="78" width="140" height="26" as="geometry" />
        </mxCell>
        <mxCell id="niXC2qNcagluS79J-eN3-116" value="" style="endArrow=classic;html=1;rounded=0;exitX=0.5;exitY=1;exitDx=0;exitDy=0;entryX=0.5;entryY=0;entryDx=0;entryDy=0;" edge="1" parent="1" source="niXC2qNcagluS79J-eN3-97" target="niXC2qNcagluS79J-eN3-98">
          <mxGeometry width="50" height="50" relative="1" as="geometry">
            <mxPoint x="1330" y="341.25" as="sourcePoint" />
            <mxPoint x="1380" y="291.25" as="targetPoint" />
          </mxGeometry>
        </mxCell>
        <mxCell id="niXC2qNcagluS79J-eN3-118" value="" style="endArrow=classic;html=1;rounded=0;exitX=0.5;exitY=1;exitDx=0;exitDy=0;entryX=0.5;entryY=0;entryDx=0;entryDy=0;" edge="1" parent="1" source="niXC2qNcagluS79J-eN3-97" target="niXC2qNcagluS79J-eN3-102">
          <mxGeometry width="50" height="50" relative="1" as="geometry">
            <mxPoint x="1480" y="240" as="sourcePoint" />
            <mxPoint x="1310" y="466" as="targetPoint" />
          </mxGeometry>
        </mxCell>
        <mxCell id="niXC2qNcagluS79J-eN3-119" value="" style="endArrow=classic;html=1;rounded=0;entryX=0.5;entryY=0;entryDx=0;entryDy=0;" edge="1" parent="1" target="niXC2qNcagluS79J-eN3-106">
          <mxGeometry width="50" height="50" relative="1" as="geometry">
            <mxPoint x="1180" y="550" as="sourcePoint" />
            <mxPoint x="1010" y="776" as="targetPoint" />
          </mxGeometry>
        </mxCell>
        <mxCell id="niXC2qNcagluS79J-eN3-120" value="" style="endArrow=classic;html=1;rounded=0;entryX=0.5;entryY=0;entryDx=0;entryDy=0;" edge="1" parent="1" target="niXC2qNcagluS79J-eN3-106">
          <mxGeometry width="50" height="50" relative="1" as="geometry">
            <mxPoint x="1520" y="549.56" as="sourcePoint" />
            <mxPoint x="1690" y="645.56" as="targetPoint" />
          </mxGeometry>
        </mxCell>
        <mxCell id="niXC2qNcagluS79J-eN3-121" value="" style="endArrow=classic;html=1;rounded=0;entryX=0;entryY=1;entryDx=0;entryDy=0;" edge="1" parent="1" target="niXC2qNcagluS79J-eN3-122">
          <mxGeometry width="50" height="50" relative="1" as="geometry">
            <mxPoint x="740" y="52.5" as="sourcePoint" />
            <mxPoint x="720" y="30" as="targetPoint" />
          </mxGeometry>
        </mxCell>
        <mxCell id="niXC2qNcagluS79J-eN3-122" value="Filters" style="text;html=1;align=center;verticalAlign=middle;whiteSpace=wrap;rounded=0;" vertex="1" parent="1">
          <mxGeometry x="794" y="10" width="50" height="20" as="geometry" />
        </mxCell>
      </root>
    </mxGraphModel>
  </diagram>
</mxfile>
